Coordinates
version=1
nRows=7
nColumns=46
inDegrees=yes

Units are S.I. units (second, meters, Newtons, ...)
Angles are in degrees.

endheader
time	pelvis_tilt	pelvis_list	pelvis_rotation	pelvis_tx	pelvis_ty	pelvis_tz	bb_angle	bb_tx	bb_ty	bb_tz	hip_flexion_r	hip_adduction_r	hip_rotation_r	knee_angle_r	knee_angle_r_beta	ankle_angle_r	subtalar_angle_r	mtp_angle_r	crank_angle_r	hip_flexion_l	hip_adduction_l	hip_rotation_l	knee_angle_l	knee_angle_l_beta	ankle_angle_l	subtalar_angle_l	mtp_angle_l	crank_angle_l	lumbar_extension	lumbar_bending	lumbar_rotation	arm_flex_r	arm_add_r	arm_rot_r	elbow_flex_r	pro_sup_r	wrist_flex_r	wrist_dev_r	arm_flex_l	arm_add_l	arm_rot_l	elbow_flex_l	pro_sup_l	wrist_flex_l	wrist_dev_l
      7.50500000	    -25.48991386	      8.47118439	      2.35652192	      0.47898478	      1.19554397	     -0.23642378	      0.00000000	      0.50000000	      0.00000000	      0.25000000	     28.17881002	    -12.49916531	    -10.35442821	     23.20870144	      0.40506826	    -12.17149566	      2.73222921	      0.00000000	      0.00000000	     71.61994072	      2.01834067	     -0.13256713	    105.26266138	      1.83718002	    -17.77742113	     -3.80306126	      0.00000000	      0.00000000	    -58.16650033	     -2.18800098	     -0.26868370	     45.18049582	    -17.12402818	     13.77252660	     77.09548371	     56.00788754	      0.00000000	      0.00000000	     53.02719940	     -1.92013968	     16.77765969	     64.81858534	     52.89165904	      0.00000000	      0.00000000
      7.51000000	    -25.33360811	      8.35697919	      3.06990192	      0.47972178	      1.19664745	     -0.23653417	      0.00000000	      0.50000000	      0.00000000	      0.25000000	     26.91001801	    -12.67745838	    -11.53534871	     22.55426589	      0.39364620	    -13.12994453	      3.03349128	      0.00000000	      0.00000000	     72.51495298	      2.54379698	      0.19166361	    105.46705425	      1.84074735	    -17.95298249	     -3.77190142	      0.00000000	      0.00000000	    -58.18157503	     -2.06046189	     -0.62775795	     45.22962706	    -17.00733101	     13.71962140	     76.01610172	     55.86869792	      0.00000000	      0.00000000	     53.67144190	     -2.38209031	     18.02785586	     63.93327358	     52.92586598	      0.00000000	      0.00000000
      7.51500000	    -25.24129008	      8.19659228	      3.83576875	      0.48039678	      1.19783765	     -0.23652207	      0.00000000	      0.50000000	      0.00000000	      0.25000000	     25.77932098	    -12.76534347	    -12.58653387	     22.07345834	      0.38525453	    -14.15086724	      2.98118314	      0.00000000	      0.00000000	     73.41922422	      3.09428223	      0.56763384	    105.50235072	      1.84136339	    -18.14084484	     -3.72626100	      0.00000000	      0.00000000	    -58.29707960	     -1.82450890	     -1.00220760	     45.12734732	    -16.93284347	     13.60515788	     75.69822520	     55.81675696	      0.00000000	      0.00000000	     53.92802124	     -2.57822204	     18.37695739	     63.85692263	     52.95968230	      0.00000000	      0.00000000
      7.52000000	    -25.06558481	      7.94121280	      4.33954610	      0.48049527	      1.19897544	     -0.23705601	      0.00000000	      0.50000000	      0.00000000	      0.25000000	     24.90255537	    -12.75985641	    -13.51134003	     21.98226504	      0.38366290	    -15.17070018	      3.05737117	      0.00000000	      0.00000000	     74.22866801	      3.55372518	      0.97050258	    105.47034524	      1.84080479	    -18.43209013	     -3.79750795	      0.00000000	      0.00000000	    -58.44762318	     -1.63892168	     -1.18735620	     45.19686280	    -16.95328123	     13.47546050	     75.26382944	     55.74186677	      0.00000000	      0.00000000	     54.18451262	     -2.84670513	     18.74295503	     63.82813742	     53.00327788	      0.00000000	      0.00000000
      7.52500000	    -24.96590148	      7.77945411	      4.84416221	      0.48066851	      1.20012450	     -0.23740635	      0.00000000	      0.50000000	      0.00000000	      0.25000000	     24.26949644	    -12.86061551	    -14.34710105	     22.19725787	      0.38741523	    -16.14047171	      2.98156405	      0.00000000	      0.00000000	     75.00062429	      3.98715528	      1.20478958	    105.25663465	      1.83707483	    -18.72569728	     -3.88519223	      0.00000000	      0.00000000	    -58.62710339	     -1.51304570	     -1.44416036	     45.23094637	    -16.94092135	     13.39817585	     74.92428803	     55.68550539	      0.00000000	      0.00000000	     54.52509230	     -3.07231228	     19.05162644	     63.89273594	     53.05061766	      0.00000000	      0.00000000
      7.53000000	    -24.68035061	      7.63482965	      5.46041670	      0.48096125	      1.20179097	     -0.23804730	      0.00000000	      0.50000000	      0.00000000	      0.25000000	     23.52383018	    -13.07363898	    -15.34047450	     22.66219513	      0.39552992	    -16.88736691	      3.05147104	      0.00000000	      0.00000000	     75.48122310	      4.56585885	      1.34688631	    104.87310212	      1.83038093	    -19.26461915	     -4.56722591	      0.00000000	      0.00000000	    -58.95533987	     -1.19527696	     -2.11814267	     45.98609396	    -16.26419328	     13.51192008	     73.51666913	     55.52124753	      0.00000000	      0.00000000	     54.90994942	     -4.57061398	     20.83556962	     64.12550062	     53.32415692	      0.00000000	      0.00000000
      7.53500000	    -24.53774566	      7.47436342	      6.00122420	      0.48126916	      1.20324978	     -0.23817627	      0.00000000	      0.50000000	      0.00000000	      0.25000000	     23.12686319	    -13.21172301	    -16.04585978	     23.43388632	      0.40899847	    -17.72252489	      2.70203344	      0.00000000	      0.00000000	     76.00250151	      5.02451146	      1.56027193	    104.38885968	      1.82192930	    -19.50814706	     -4.63885494	      0.00000000	      0.00000000	    -59.27468005	     -1.03575873	     -2.40160743	     46.03141147	    -16.30277614	     13.48210404	     73.30372293	     55.49312938	      0.00000000	      0.00000000	     55.16547772	     -4.77424646	     20.94220154	     64.30948542	     53.36478434	      0.00000000	      0.00000000
